# WaveFront *.obj file (generated by Autodesk ATF)

mtllib LegLowerPhysical.mtl

g Body70

v -0.092081 0.085986 0.023369
v -0.114869 0.099143 0.023369
v -0.122614 0.081735 0.020198
v -0.130780 0.042041 0.013762
v -0.130338 0.006259 0.008613
v -0.129078 0.000542 0.007890
v -0.121791 0.000542 0.008500
v -0.120036 0.007076 0.009594
v -0.117398 0.038072 0.014306
v -0.109913 0.069940 0.019551
v -0.103221 0.080034 0.021574
v -0.093581 0.084003 0.022956
v -0.114869 0.099143 -0.024631
v -0.092081 0.085986 -0.024631
v -0.093581 0.084003 -0.024218
v -0.103221 0.080034 -0.022837
v -0.109913 0.069940 -0.020814
v -0.117398 0.038072 -0.015569
v -0.120036 0.007076 -0.010857
v -0.121791 0.000542 -0.009763
v -0.129078 0.000542 -0.009153
v -0.130338 0.006259 -0.009876
v -0.130780 0.042041 -0.015025
v -0.122614 0.081735 -0.021461
v -0.113490 0.102242 0.023369
v -0.113490 0.102242 -0.024631
v -0.090029 0.088697 0.023369
v -0.090029 0.088697 -0.024631
v -0.075716 0.113488 0.023369
v -0.075716 0.113488 -0.024631
v -0.099177 0.127033 0.023369
v -0.099177 0.127033 -0.024631
vt 1.116711 2.219817 0.000000
vt -1.162124 3.535503 0.000000
vt 0.964932 2.018576 0.000000
vt -0.004796 1.611696 0.000000
vt -0.682320 0.587790 0.000000
vt -1.949828 1.771909 0.000000
vt -1.452617 -2.636779 0.000000
vt -2.793120 -2.243761 0.000000
vt -1.736050 -5.770261 0.000000
vt -2.770301 -5.859077 0.000000
vt -1.916070 -6.431551 0.000000
vt -2.647268 -6.435939 0.000000
vt -1.116711 2.219817 0.000000
vt -0.964932 2.018576 0.000000
vt 1.162124 3.535503 0.000000
vt 0.004796 1.611696 0.000000
vt 0.682320 0.587790 0.000000
vt 1.949828 1.771909 0.000000
vt 1.452617 -2.636779 0.000000
vt 2.793120 -2.243761 0.000000
vt 1.736050 -5.770261 0.000000
vt 2.770301 -5.859077 0.000000
vt 1.916070 -6.431551 0.000000
vt 2.647268 -6.435939 0.000000
vt 0.000000 0.317084 0.000000
vt 1.905309 -0.000000 0.000000
vt 1.905309 4.800000 0.000000
vt 2.244528 -0.000000 0.000000
vt 2.244528 4.800000 0.000000
vt -0.000000 4.482916 0.000000
vt -0.000000 0.960657 0.000000
vt 4.052476 0.317084 0.000000
vt -0.000000 3.839343 0.000000
vt 4.052476 4.482916 0.000000
vt -0.000000 1.475531 0.000000
vt 3.578538 0.960657 0.000000
vt -0.000000 3.324469 0.000000
vt 3.578538 3.839343 0.000000
vt -0.000000 1.547832 0.000000
vt 0.585388 1.475531 0.000000
vt -0.000000 3.252168 0.000000
vt 0.585388 3.324469 0.000000
vt 0.728665 1.547832 0.000000
vt 0.728665 3.252168 0.000000
vt -0.000000 1.486864 0.000000
vt 0.000000 3.313136 0.000000
vt 0.676571 1.486864 0.000000
vt 0.676571 3.313136 0.000000
vt 0.000000 1.377486 0.000000
vt -0.000000 3.422514 0.000000
vt 3.110779 1.377486 0.000000
vt 3.110779 3.422514 0.000000
vt 0.000000 0.906210 0.000000
vt 0.000000 3.893790 0.000000
vt 3.273550 0.906210 0.000000
vt 3.273550 3.893790 0.000000
vt -0.000000 0.381737 0.000000
vt 0.000000 4.418263 0.000000
vt 1.210996 0.381737 0.000000
vt 1.210996 4.418263 0.000000
vt 0.000000 0.179473 0.000000
vt -0.000000 4.620527 0.000000
vt 1.042511 0.179473 0.000000
vt 1.042511 4.620527 0.000000
vt -0.000000 0.041290 0.000000
vt 0.000000 4.758710 0.000000
vt 0.000000 4.800000 0.000000
vt 0.000000 0.000000 0.000000
vt 0.339975 4.800000 0.000000
vt 0.339975 -0.000000 0.000000
vt 0.588632 0.041290 0.000000
vt 0.588632 4.758710 0.000000
vt 0.000000 -0.000000 0.000000
vt 2.862647 -0.000000 0.000000
vt 0.000000 4.800000 0.000000
vt 2.862647 4.800000 0.000000
vt 0.000000 0.000000 0.000000
vt 2.709056 -0.000000 0.000000
vt 0.000000 4.800000 0.000000
vt 2.709056 4.800000 0.000000
vt 0.000000 0.000000 0.000000
vt 2.862647 0.000000 0.000000
vt -0.000000 4.800000 0.000000
vt 2.862647 4.800000 0.000000
vt -1.162124 3.535503 0.000000
vt 1.116711 2.219817 0.000000
vt -1.024227 3.845430 0.000000
vt 1.321884 2.490902 0.000000
vt 0.407097 6.324555 0.000000
vt 2.753208 4.970027 0.000000
vt 1.162124 3.535503 0.000000
vt 1.024227 3.845430 0.000000
vt -1.116711 2.219817 0.000000
vt -1.321884 2.490902 0.000000
vt -0.407097 6.324555 0.000000
vt -2.753208 4.970027 0.000000
vn -8.252380 -14.293542 98.628560
vn -8.252380 -14.293542 98.628560
vn -8.252380 -14.293542 98.628560
vn -8.252380 -14.293542 98.628560
vn -8.252380 -14.293542 98.628560
vn -8.252380 -14.293542 98.628560
vn -8.252380 -14.293542 98.628560
vn -8.252380 -14.293542 98.628560
vn -8.252380 -14.293542 98.628560
vn -8.252380 -14.293542 98.628560
vn -8.252380 -14.293542 98.628560
vn -8.252380 -14.293542 98.628560
vn -8.252380 -14.293542 -98.628560
vn -8.252380 -14.293542 -98.628560
vn -8.252380 -14.293542 -98.628560
vn -8.252380 -14.293542 -98.628560
vn -8.252380 -14.293542 -98.628560
vn -8.252380 -14.293542 -98.628560
vn -8.252380 -14.293542 -98.628560
vn -8.252380 -14.293542 -98.628560
vn -8.252380 -14.293542 -98.628560
vn -8.252380 -14.293542 -98.628560
vn -8.252380 -14.293542 -98.628560
vn -8.252380 -14.293542 -98.628560
vn -91.364551 40.651186 0.000000
vn -91.364551 40.651186 0.000000
vn -91.364551 40.651186 0.000000
vn -91.364551 40.651186 0.000000
vn -91.364551 40.651186 0.000000
vn -91.364551 40.651186 0.000000
vn -97.948954 20.149499 0.000000
vn -97.948954 20.149499 0.000000
vn -97.948954 20.149499 0.000000
vn -97.948954 20.149499 0.000000
vn -99.992368 -1.235428 0.000000
vn -99.992368 -1.235428 0.000000
vn -99.992368 -1.235428 0.000000
vn -99.992368 -1.235428 0.000000
vn -97.654680 -21.530525 0.000000
vn -97.654680 -21.530525 0.000000
vn -97.654680 -21.530525 0.000000
vn -97.654680 -21.530525 0.000000
vn -0.000000 -100.000000 -0.000000
vn -0.000000 -100.000000 -0.000000
vn -0.000000 -100.000000 -0.000000
vn -0.000000 -100.000000 -0.000000
vn 96.578040 -25.936116 -0.000000
vn 96.578040 -25.936116 -0.000000
vn 96.578040 -25.936116 -0.000000
vn 96.578040 -25.936116 -0.000000
vn 99.639640 -8.481871 -0.000000
vn 99.639640 -8.481871 -0.000000
vn 99.639640 -8.481871 -0.000000
vn 99.639640 -8.481871 -0.000000
vn 97.350796 -22.865312 -0.000000
vn 97.350796 -22.865312 -0.000000
vn 97.350796 -22.865312 -0.000000
vn 97.350796 -22.865312 -0.000000
vn 83.348826 -55.253716 -0.000000
vn 83.348826 -55.253716 -0.000000
vn 83.348826 -55.253716 -0.000000
vn 83.348826 -55.253716 -0.000000
vn 38.074981 -92.467810 -0.000000
vn 38.074981 -92.467810 -0.000000
vn 38.074981 -92.467810 -0.000000
vn 38.074981 -92.467810 -0.000000
vn 79.736610 -60.349590 -0.000000
vn 79.736610 -60.349590 -0.000000
vn 79.736610 -60.349590 -0.000000
vn 79.736610 -60.349590 -0.000000
vn 79.736610 -60.349590 -0.000000
vn 79.736610 -60.349590 -0.000000
vn 86.602540 -50.000000 -0.000000
vn 86.602540 -50.000000 -0.000000
vn 86.602540 -50.000000 -0.000000
vn 86.602540 -50.000000 -0.000000
vn 50.000000 86.602540 -0.000000
vn 50.000000 86.602540 -0.000000
vn 50.000000 86.602540 -0.000000
vn 50.000000 86.602540 -0.000000
vn -86.602540 50.000000 0.000000
vn -86.602540 50.000000 0.000000
vn -86.602540 50.000000 0.000000
vn -86.602540 50.000000 0.000000
vn 0.000000 -0.000000 100.000000
vn 0.000000 -0.000000 100.000000
vn 0.000000 -0.000000 100.000000
vn 0.000000 -0.000000 100.000000
vn 0.000000 -0.000000 100.000000
vn 0.000000 -0.000000 100.000000
vn -0.000000 0.000000 -100.000000
vn -0.000000 0.000000 -100.000000
vn -0.000000 0.000000 -100.000000
vn -0.000000 0.000000 -100.000000
vn -0.000000 0.000000 -100.000000
vn -0.000000 0.000000 -100.000000
usemtl ABS_(White)
f 1/1/1 2/2/2 12/3/3
f 12/3/3 2/2/2 11/4/4
f 11/4/4 2/2/2 10/5/5
f 10/5/5 2/2/2 3/6/6
f 10/5/5 3/6/6 9/7/7
f 9/7/7 3/6/6 4/8/8
f 9/7/7 4/8/8 8/9/9
f 8/9/9 4/8/8 5/10/10
f 8/9/9 5/10/10 7/11/11
f 7/11/11 5/10/10 6/12/12
f 14/13/13 15/14/14 13/15/15
f 13/15/15 15/14/14 16/16/16
f 13/15/15 16/16/16 17/17/17
f 13/15/15 17/17/17 24/18/18
f 24/18/18 17/17/17 18/19/19
f 24/18/18 18/19/19 23/20/20
f 23/20/20 18/19/19 19/21/21
f 23/20/20 19/21/21 22/22/22
f 22/22/22 19/21/21 20/23/23
f 22/22/22 20/23/23 21/24/24
f 3/25/25 2/26/26 13/27/27
f 13/27/27 2/26/26 25/28/28
f 13/27/27 25/28/28 26/29/29
f 13/27/27 24/30/30 3/25/25
f 4/31/31 3/32/32 23/33/33
f 23/33/33 3/32/32 24/34/34
f 5/35/35 4/36/36 22/37/37
f 22/37/37 4/36/36 23/38/38
f 6/39/39 5/40/40 21/41/41
f 21/41/41 5/40/40 22/42/42
f 6/43/43 21/44/44 7/45/45
f 7/45/45 21/44/44 20/46/46
f 7/47/47 20/48/48 8/49/49
f 8/49/49 20/48/48 19/50/50
f 8/51/51 19/52/52 9/53/53
f 9/53/53 19/52/52 18/54/54
f 9/55/55 18/56/56 10/57/57
f 10/57/57 18/56/56 17/58/58
f 10/59/59 17/60/60 11/61/61
f 11/61/61 17/60/60 16/62/62
f 11/63/63 16/64/64 12/65/65
f 12/65/65 16/64/64 15/66/66
f 28/67/67 27/68/68 14/69/69
f 14/69/69 27/68/68 1/70/70
f 14/69/69 1/70/70 12/71/71
f 12/71/71 15/72/72 14/69/69
f 29/73/73 27/74/74 30/75/75
f 30/75/75 27/74/74 28/76/76
f 31/77/77 29/78/78 32/79/79
f 32/79/79 29/78/78 30/80/80
f 25/81/81 31/82/82 26/83/83
f 26/83/83 31/82/82 32/84/84
f 2/85/85 1/86/86 25/87/87
f 25/87/87 1/86/86 27/88/88
f 25/87/87 27/88/88 31/89/89
f 31/89/89 27/88/88 29/90/90
f 13/91/91 26/92/92 14/93/93
f 14/93/93 26/92/92 28/94/94
f 28/94/94 26/92/92 32/95/95
f 28/94/94 32/95/95 30/96/96
# 32 vertices
# 96 texture params
# 96 normals
# 60 facets

# 1 groups
