# WaveFront *.obj file (generated by Autodesk ATF)

mtllib LegUpperPhysical.mtl

g Body69

v -0.035442 0.094024 0.024349
v 0.016272 0.094024 0.008898
v 0.016272 0.094024 -0.011308
v -0.035442 0.094024 -0.026759
v -0.039831 0.090971 0.026295
v -0.004962 0.040847 0.026295
v 0.005651 0.048230 0.021590
v 0.016272 0.064307 0.015075
v -0.059532 0.077265 0.026295
v -0.028522 0.032688 0.026295
v -0.012098 0.035882 0.026295
v -0.039831 0.090971 -0.028705
v -0.059532 0.077265 -0.028705
v 0.016272 0.064307 -0.017484
v 0.005651 0.048230 -0.023999
v -0.004962 0.040847 -0.028705
v -0.012098 0.035882 -0.028705
v -0.028522 0.032688 -0.028705
vt 5.171318 5.305408 0.000000
vt -0.000000 3.760295 0.000000
vt 5.171318 0.194592 0.000000
vt -0.000000 1.739705 0.000000
vt 4.042007 3.241965 0.000000
vt -1.352963 3.086381 0.000000
vt 3.952600 0.208026 0.000000
vt 2.796268 -1.465237 0.000000
vt 1.666861 -2.250912 0.000000
vt -1.820017 2.761474 0.000000
vt -3.790189 1.390919 0.000000
vt -0.689176 -3.066787 0.000000
vt -1.820017 2.761474 0.000000
vt 0.953201 -2.747371 0.000000
vt 1.666861 -2.250912 0.000000
vt -1.023711 5.305408 0.000000
vt -1.023711 0.194592 0.000000
vt -0.489073 5.500000 0.000000
vt -0.489073 -0.000000 0.000000
vt 1.910927 -0.000000 0.000000
vt 1.910927 5.500000 0.000000
vt -4.042007 3.241965 0.000000
vt -3.952600 0.208026 0.000000
vt 1.352963 3.086381 0.000000
vt -2.796268 -1.465237 0.000000
vt -1.666861 -2.250912 0.000000
vt 1.820017 2.761474 0.000000
vt -0.000000 5.500000 0.000000
vt 0.000000 0.000000 0.000000
vt 0.869357 5.500000 0.000000
vt 0.869357 0.000000 0.000000
vt 2.162193 0.470554 0.000000
vt 2.162193 5.029446 0.000000
vt 0.000000 0.000000 0.000000
vt 1.673149 -0.000000 0.000000
vt -0.000000 5.500000 0.000000
vt 1.673149 5.500000 0.000000
vt 0.000000 0.000000 0.000000
vt 5.430233 -0.000000 0.000000
vt 0.000000 5.500000 0.000000
vt 5.430233 5.500000 0.000000
vt 2.971742 1.739705 0.000000
vt 2.971742 3.760295 0.000000
vt -0.000000 1.122027 0.000000
vt -0.000000 4.377973 0.000000
vt 1.926784 1.122027 0.000000
vt 1.926784 4.377973 0.000000
vt 0.000000 0.470554 0.000000
vt -0.000000 5.029446 0.000000
vt 3.790189 1.390919 0.000000
vt 1.820017 2.761474 0.000000
vt 0.689176 -3.066787 0.000000
vt -0.953201 -2.747371 0.000000
vt -1.666861 -2.250912 0.000000
vn -0.000000 100.000000 -0.000000
vn -0.000000 100.000000 -0.000000
vn -0.000000 100.000000 -0.000000
vn -0.000000 100.000000 -0.000000
vn 28.076611 19.531556 93.969262
vn 28.076611 19.531556 93.969262
vn 28.076611 19.531556 93.969262
vn 28.076611 19.531556 93.969262
vn 28.076611 19.531556 93.969262
vn 28.076611 19.531556 93.969262
vn 0.000000 0.000000 100.000000
vn 0.000000 0.000000 100.000000
vn 0.000000 0.000000 100.000000
vn 0.000000 0.000000 100.000000
vn 0.000000 0.000000 100.000000
vn -57.106449 82.090520 0.000000
vn -57.106449 82.090520 0.000000
vn -57.106449 82.090520 0.000000
vn -57.106449 82.090520 0.000000
vn -57.106449 82.090520 0.000000
vn -57.106449 82.090520 0.000000
vn 28.076611 19.531556 -93.969262
vn 28.076611 19.531556 -93.969262
vn 28.076611 19.531556 -93.969262
vn 28.076611 19.531556 -93.969262
vn 28.076611 19.531556 -93.969262
vn 28.076611 19.531556 -93.969262
vn 57.106449 -82.090520 -0.000000
vn 57.106449 -82.090520 -0.000000
vn 57.106449 -82.090520 -0.000000
vn 57.106449 -82.090520 -0.000000
vn 57.106449 -82.090520 -0.000000
vn 57.106449 -82.090520 -0.000000
vn 19.090716 -98.160810 0.000000
vn 19.090716 -98.160810 0.000000
vn 19.090716 -98.160810 0.000000
vn 19.090716 -98.160810 0.000000
vn -82.090520 -57.106449 0.000000
vn -82.090520 -57.106449 0.000000
vn -82.090520 -57.106449 0.000000
vn -82.090520 -57.106449 0.000000
vn 100.000000 -0.000000 -0.000000
vn 100.000000 -0.000000 -0.000000
vn 100.000000 -0.000000 -0.000000
vn 100.000000 -0.000000 -0.000000
vn 83.437685 -55.119440 -0.000000
vn 83.437685 -55.119440 -0.000000
vn 83.437685 -55.119440 -0.000000
vn 83.437685 -55.119440 -0.000000
vn -0.000000 -0.000000 -100.000000
vn -0.000000 -0.000000 -100.000000
vn -0.000000 -0.000000 -100.000000
vn -0.000000 -0.000000 -100.000000
vn -0.000000 -0.000000 -100.000000
usemtl ABS_(White)
f 1/1/1 2/2/2 4/3/3
f 4/3/3 2/2/2 3/4/4
f 2/5/5 1/6/6 8/7/7
f 8/7/7 1/6/6 7/8/8
f 7/8/8 1/6/6 6/9/9
f 6/9/9 1/6/6 5/10/10
f 9/11/11 10/12/12 5/13/13
f 5/13/13 10/12/12 11/14/14
f 5/13/13 11/14/14 6/15/15
f 1/16/16 4/17/17 5/18/18
f 5/18/18 4/17/17 12/19/19
f 5/18/18 12/19/19 13/20/20
f 13/20/20 9/21/21 5/18/18
f 3/22/22 14/23/23 4/24/24
f 4/24/24 14/23/23 15/25/25
f 4/24/24 15/25/25 16/26/26
f 16/26/26 12/27/27 4/24/24
f 11/28/28 17/29/29 6/30/30
f 6/30/30 17/29/29 16/31/31
f 6/30/30 16/31/31 15/32/32
f 15/32/32 7/33/33 6/30/30
f 18/34/34 17/35/35 10/36/36
f 10/36/36 17/35/35 11/37/37
f 13/38/38 18/39/39 9/40/40
f 9/40/40 18/39/39 10/41/41
f 3/42/42 2/43/43 14/44/44
f 14/44/44 2/43/43 8/45/45
f 14/46/46 8/47/47 15/48/48
f 15/48/48 8/47/47 7/49/49
f 13/50/50 12/51/51 18/52/52
f 18/52/52 12/51/51 17/53/53
f 17/53/53 12/51/51 16/54/54
# 18 vertices
# 54 texture params
# 54 normals
# 32 facets

# 1 groups
